<?xml version="1.0" encoding="utf-8"?>
<!-- Generator: Adobe Illustrator 17.0.0, SVG Export Plug-In . SVG Version: 6.00 Build 0)  -->
<!DOCTYPE svg PUBLIC "-//W3C//DTD SVG 1.1//EN" "http://www.w3.org/Graphics/SVG/1.1/DTD/svg11.dtd">
<svg version="1.1" id="Layer_1" xmlns="http://www.w3.org/2000/svg" xmlns:xlink="http://www.w3.org/1999/xlink" x="0px" y="0px"
	 width="137.25px" height="40.008px" viewBox="0 0 137.25 40.008" enable-background="new 0 0 137.25 40.008" xml:space="preserve">
<g>
	<path fill="#FFFFFF" d="M16.587,3.763c0.228-0.038,0.845-0.057,1.853-0.057c1.006,0,2.223,0.181,3.648,0.542
		c1.425,0.362,2.812,0.95,4.161,1.767c1.348,0.817,2.431,2.015,3.249,3.591c0.816,1.578,1.226,3.449,1.226,5.615
		c0,3.572-1.388,6.46-4.161,8.664c-2.774,2.204-6.441,3.306-11.001,3.306c0,7.41-1.311,11.115-3.933,11.115
		c-1.748,0-2.622-0.741-2.622-2.223c0-0.456,0.228-1.083,0.684-1.881s0.778-1.71,0.969-2.736c0.189-1.026,0.342-2.679,0.456-4.959
		c-1.559-0.493-2.337-1.178-2.337-2.052s0.399-1.312,1.197-1.312c0.417,0,0.835,0.058,1.254,0.171
		c0.493-10.146,0.835-15.75,1.026-16.815c-2.166,0.533-3.961,1.406-5.386,2.622c-1.425,1.217-2.138,2.66-2.138,4.332
		c0,0.95-0.199,1.691-0.599,2.223c-0.399,0.532-0.903,0.798-1.51,0.798c-1.14,0-1.71-0.646-1.71-1.938
		c0-2.545,1.13-4.74,3.392-6.583c2.26-1.843,5.082-3.087,8.464-3.733c0.721-2.432,1.729-3.648,3.021-3.648
		C16.321,0.571,16.587,1.635,16.587,3.763z M26.448,16.816c0-3.42-0.979-6.032-2.936-7.837c-1.958-1.804-4.323-2.764-7.097-2.878
		c-0.57,6.726-0.855,13.053-0.855,18.981c0.532,0.076,0.949,0.114,1.254,0.114c3.192,0,5.595-0.817,7.21-2.451
		C25.64,21.111,26.448,19.134,26.448,16.816z"/>
	<path fill="#FFFFFF" d="M47.538,37.051c-1.482,0-2.604-0.304-3.363-0.912c-0.266-0.266-0.399-0.94-0.399-2.023
		s0.038-2.536,0.114-4.36c-0.989,2.471-1.967,4.304-2.936,5.5c-0.969,1.197-2.214,1.796-3.733,1.796c-1.521,0-2.85-0.713-3.99-2.138
		s-1.71-3.666-1.71-6.726c0-3.059,0.864-5.766,2.593-8.123c1.729-2.355,3.999-3.534,6.812-3.534c1.216,0,2.584,0.798,4.104,2.394
		c0.304-0.418,0.845-0.921,1.625-1.511c0.779-0.589,1.444-0.883,1.995-0.883c0.55,0,0.827,0.722,0.827,2.166
		c0,0.38-0.105,1.121-0.313,2.223c-0.209,1.103-0.447,1.901-0.712,2.394c-0.342,0.875-0.513,3.972-0.513,9.291
		c0,1.026,0.114,1.539,0.342,1.539c0.646-0.037,1.539-0.845,2.679-2.422s2.27-3.601,3.391-6.071
		c1.121-2.469,1.805-3.704,2.053-3.704c0.246,0,0.37,0.152,0.37,0.456c0,1.063-0.552,2.755-1.653,5.072
		C52.116,33.859,49.589,37.051,47.538,37.051z M40.583,18.811c-1.064,0-2.194,0.789-3.392,2.366
		c-1.197,1.578-1.795,3.43-1.795,5.557c0,2.129,0.313,3.877,0.94,5.244c0.627,1.368,1.454,2.053,2.479,2.053
		c1.254,0,3.097-3.136,5.529-9.405c0.037-0.304,0.085-0.826,0.142-1.567c0.057-0.741,0.104-1.302,0.143-1.682
		c-0.342-0.607-0.94-1.187-1.795-1.738C41.98,19.087,41.229,18.811,40.583,18.811z"/>
	<path fill="#FFFFFF" d="M60.477,34.258c1.368,0,2.565-0.713,3.591-2.138c1.026-1.425,1.786-3.163,2.28-5.215
		c-1.368-0.418-2.414-1.149-3.135-2.195c-0.723-1.044-1.083-2.251-1.083-3.619s0.351-2.565,1.054-3.591s1.72-1.539,3.05-1.539
		c0.798,0,1.405,0.504,1.824,1.511c0.418,1.007,0.627,2.137,0.627,3.392s-0.096,2.508-0.285,3.762
		c0.57,0.228,1.178,0.342,1.824,0.342c1.481,0,2.907-0.684,4.275-2.052c0.684-0.685,1.148-1.026,1.396-1.026
		c0.246,0,0.37,0.19,0.37,0.57s-0.248,0.836-0.741,1.368c-2.015,2.242-4.56,3.362-7.638,3.362c-0.723,2.774-1.844,5.111-3.363,7.012
		c-1.521,1.9-3.383,2.85-5.586,2.85c-1.292,0-2.356-0.551-3.192-1.653c-1.406-1.785-2.108-4.407-2.108-7.865
		c0-1.178,0.095-2.698,0.285-4.561c0.189-1.861,0.407-3.001,0.655-3.42c0.247-0.418,0.854-0.931,1.824-1.539
		c0.969-0.607,1.643-0.912,2.023-0.912c0.569,0,0.854,0.342,0.854,1.026c0,1.938-0.494,4.047-1.481,6.328
		c0,2.698,0.218,5.007,0.655,6.925C58.89,33.299,59.564,34.258,60.477,34.258z M65.663,18.127c-0.304,0-0.455,0.627-0.455,1.881
		c0,1.254,0.569,2.451,1.71,3.591c0.075-0.456,0.113-0.912,0.113-1.368C67.031,19.495,66.575,18.127,65.663,18.127z"/>
	<path fill="#FFFFFF" d="M89.317,37.051c-1.481,0-2.603-0.304-3.362-0.912c-0.267-0.266-0.399-0.94-0.399-2.023
		s0.037-2.536,0.114-4.36c-0.988,2.471-1.967,4.304-2.936,5.5c-0.969,1.197-2.214,1.796-3.733,1.796
		c-1.521,0-2.851-0.713-3.99-2.138s-1.71-3.666-1.71-6.726c0-3.059,0.864-5.766,2.594-8.123c1.729-2.355,3.999-3.534,6.812-3.534
		c1.216,0,2.583,0.798,4.104,2.394c0.304-0.418,0.846-0.921,1.625-1.511c0.778-0.589,1.443-0.883,1.995-0.883
		c0.55,0,0.826,0.722,0.826,2.166c0,0.38-0.105,1.121-0.313,2.223c-0.209,1.103-0.447,1.901-0.713,2.394
		c-0.342,0.875-0.513,3.972-0.513,9.291c0,1.026,0.114,1.539,0.342,1.539c0.646-0.037,1.539-0.845,2.679-2.422
		c1.141-1.577,2.271-3.601,3.392-6.071c1.121-2.469,1.805-3.704,2.053-3.704c0.246,0,0.37,0.152,0.37,0.456
		c0,1.063-0.552,2.755-1.653,5.072C93.896,33.859,91.37,37.051,89.317,37.051z M82.364,18.811c-1.064,0-2.195,0.789-3.392,2.366
		c-1.197,1.578-1.796,3.43-1.796,5.557c0,2.129,0.313,3.877,0.94,5.244c0.627,1.368,1.453,2.053,2.479,2.053
		c1.254,0,3.097-3.136,5.529-9.405c0.037-0.304,0.085-0.826,0.143-1.567c0.057-0.741,0.104-1.302,0.143-1.682
		c-0.343-0.607-0.94-1.187-1.796-1.738C83.761,19.087,83.01,18.811,82.364,18.811z"/>
	<path fill="#FFFFFF" d="M99.578,33.688l0.057,1.768c0,1.064-0.305,1.596-0.912,1.596c-0.912,0-1.786-0.124-2.622-0.37
		c-0.836-0.247-1.254-0.589-1.254-1.026c0-0.437,0.105-1.938,0.313-4.503c0.209-2.565,0.313-4.493,0.313-5.785v-3.363
		c0-1.824,0.189-2.926,0.57-3.306c0.379-0.379,1.055-0.931,2.023-1.653c0.969-0.721,1.672-1.083,2.109-1.083
		c0.436,0,0.712,0.077,0.826,0.228c0.114,0.152,0.171,0.438,0.171,0.855c0,2.015-0.38,3.915-1.14,5.701
		c-0.191,2.166-0.285,3.667-0.285,4.503c0.151-0.229,0.949-1.52,2.394-3.876c1.444-2.356,2.67-4.085,3.677-5.188
		c1.007-1.102,1.909-1.653,2.707-1.653c0.799,0,1.511,0.266,2.138,0.798c0.627,0.533,0.94,1.197,0.94,1.995
		c0,1.672-0.181,4.132-0.541,7.381c-0.361,3.249-0.542,5.302-0.542,6.156c0,0.855,0.114,1.282,0.343,1.282
		c0.646-0.037,1.539-0.845,2.679-2.422s2.271-3.601,3.392-6.071c1.12-2.469,1.804-3.704,2.052-3.704c0.247,0,0.37,0.152,0.37,0.456
		c0,1.063-0.551,2.755-1.652,5.072c-3.003,6.384-5.529,9.576-7.581,9.576c-1.482,0-2.604-0.304-3.363-0.912
		c-0.267-0.266-0.399-0.959-0.399-2.08s0.104-2.944,0.314-5.473c0.208-2.526,0.313-4.417,0.313-5.671
		c0-1.254-0.22-1.881-0.656-1.881s-1.587,1.302-3.448,3.905c-1.862,2.604-2.85,4.266-2.964,4.987
		C99.691,31.257,99.578,32.511,99.578,33.688z"/>
	<path fill="#FFFFFF" d="M123.232,37.051c-2.129,0-3.819-0.807-5.073-2.423c-1.254-1.614-1.881-3.448-1.881-5.5
		c0-4.142,0.874-7.276,2.622-9.405c1.747-2.128,4.009-3.192,6.783-3.192c1.291,0,2.355,0.352,3.191,1.054
		c0.836,0.704,1.254,1.663,1.254,2.879c0,2.28-0.96,4.189-2.878,5.729c-1.92,1.539-4.267,2.347-7.04,2.423
		c0.151,1.481,0.656,2.764,1.511,3.847c0.855,1.083,1.853,1.625,2.992,1.625c1.141,0,2.166-0.266,3.078-0.798
		s1.748-1.292,2.509-2.28c1.596-2.089,2.964-4.465,4.104-7.125c0.304-0.684,0.542-1.178,0.713-1.481s0.36-0.456,0.569-0.456
		S136,22.099,136,22.403c0,1.9-1.159,4.75-3.477,8.55C130.016,35.019,126.918,37.051,123.232,37.051z M120.211,27.247
		c2.242-0.38,3.886-1.102,4.931-2.166c1.045-1.063,1.567-2.451,1.567-4.162c0-1.71-0.551-2.565-1.652-2.565
		c-1.331,0-2.451,0.922-3.363,2.765C120.781,22.963,120.287,25.005,120.211,27.247z"/>
</g>
</svg>
