<?xml version="1.0" encoding="utf-8"?>
<!-- Generator: Adobe Illustrator 17.0.0, SVG Export Plug-In . SVG Version: 6.00 Build 0)  -->
<!DOCTYPE svg PUBLIC "-//W3C//DTD SVG 1.1//EN" "http://www.w3.org/Graphics/SVG/1.1/DTD/svg11.dtd">
<svg version="1.1" id="Layer_1" xmlns="http://www.w3.org/2000/svg" xmlns:xlink="http://www.w3.org/1999/xlink" x="0px" y="0px"
	 width="99.375px" height="98.386px" viewBox="0 0 99.375 98.386" enable-background="new 0 0 99.375 98.386" xml:space="preserve">
<g>
	<g>
		<circle fill="#EA077A" cx="-0.377" cy="50.194" r="49.193"/>
	</g>
	<g>
		<path fill="#ED1E81" d="M-2.799,18.753c2.564,0,4.642-2.079,4.642-4.642c0-2.564-2.078-4.642-4.642-4.642h-25.176
			c-3.833,2.602-7.278,5.732-10.233,9.285H-2.799z"/>
		<path fill="#ED1E81" d="M47.224,62.655H27.415c-2.564,0-4.642,2.079-4.642,4.642c0,2.564,2.079,4.643,4.642,4.643h16.391
			C45.066,68.982,46.56,65.877,47.224,62.655z"/>
	</g>
	<path fill="#ED2588" d="M-0.695,54.296h-21.047c-1.175,0-2.127-0.952-2.127-2.127c0-1.174,0.952-2.127,2.127-2.127h5.738
		c2.582,0,4.674-2.093,4.674-4.674c0-2.582-2.092-4.675-4.674-4.675h-32.64c-0.602,3.075-0.926,6.249-0.926,9.501
		c0,2.279,0.168,4.518,0.468,6.715h48.407c0.72,0,1.306-0.585,1.306-1.306C0.611,54.881,0.026,54.296-0.695,54.296z"/>
	<path fill="#BD1E65" d="M21.967,73.068H-0.416c-1.353,0-2.452-1.1-2.452-2.453c0-1.353,1.1-2.452,2.452-2.452h2.199
		c1.91,0,3.464-1.555,3.464-3.465c0-1.91-1.554-3.464-3.464-3.464h-50.094c2.531,11.031,8.765,20.642,17.331,27.46H8.681
		c1.91,0,3.463-1.555,3.463-3.465s-1.553-3.464-3.463-3.464H4.197c-1.352,0-2.453-1.101-2.453-2.453
		c0-1.353,1.101-2.452,2.453-2.452h17.77c1.046,0,1.896-0.851,1.896-1.896C23.864,73.919,23.013,73.068,21.967,73.068z"/>
	<path fill="#D1196F" d="M8.205,23.26c0,1.152,0.934,2.087,2.087,2.087h9.432c1.562,0,2.827,1.265,2.827,2.826
		c0,1.562-1.266,2.827-2.827,2.827H-2.285c-2.949,0-5.34,2.391-5.34,5.341c0,2.949,2.391,5.34,5.34,5.34h15.721
		c1.561,0,2.828,1.266,2.828,2.827c0,1.561-1.266,2.826-2.828,2.826H7.191c-1.152,0-2.087,0.934-2.087,2.086
		c0,1.153,0.935,2.087,2.087,2.087h41.592c0.012-0.438,0.034-0.873,0.034-1.313c0-10.856-3.524-20.885-9.479-29.021H10.292
		C9.139,21.173,8.205,22.107,8.205,23.26z"/>
	<circle opacity="0.04" fill="#FFFFFF" cx="2.849" cy="46.967" r="42.338"/>
	<circle opacity="0.02" fill="#FFFFFF" cx="7.6" cy="42.216" r="32.749"/>
</g>
</svg>
